<?xml version="1.0" encoding="UTF-8"?>
<svg xmlns="http://www.w3.org/2000/svg" version="1.1" viewBox="0 0 841.89 1190.55">
  <!-- Generator: Adobe Illustrator 28.6.0, SVG Export Plug-In . SVG Version: 1.2.0 Build 709)  -->
  <g>
    <g id="Layer_1">
      <path d="M113,590.55c23.33-.15,46.65-.44,69.98-.43,155.15.08,310.31.22,465.46.34,3.3,0,6.6,0,10.33-.94-1.91-.94-3.77-1.99-5.74-2.79-73.07-29.8-117.8-82.96-132.05-160.91-2-10.91-2.04-22.18-2.98-33.28,3.33,0,6.67,0,10,0,1.07,54.06,19.81,100.96,58.13,139.24,38.15,38.11,84.92,56.82,139.07,57.91v9.86c-53.96.77-100.51,19.9-138.78,57.71-38.41,37.94-57.35,84.58-58.47,138.81h-9.92c.08-43.94,12.91-83.5,38.21-118.87,25.26-35.32,58.6-60.39,99.5-75.44-.11-.41-.23-.82-.34-1.23H113v-10Z"/>
    </g>
  </g>
</svg>