<svg id="Layer_1" data-name="Layer 1" xmlns="http://www.w3.org/2000/svg" viewBox="0 0 632.99 553.4">
  <path class="cls-2" d="M315.96,0c63.42,0,114.83,38.35,114.83,85.65s-51.41,85.65-114.83,85.65-114.83-38.35-114.83-85.65S252.55,0,315.96,0"/>
  <path class="cls-2" d="M315.96,266.32c32.82,0,59.43,19.85,59.43,44.33s-26.61,44.33-59.43,44.33-59.43-19.85-59.43-44.33,26.61-44.33,59.43-44.33"/>
  <path class="cls-2" d="M315.96,429.13c20.52,0,37.15,12.41,37.15,27.71s-16.63,27.71-37.15,27.71-37.15-12.41-37.15-27.71,16.63-27.71,37.15-27.71"/>
  <path class="cls-2" d="M315.96,520.08c12.33,0,22.33,7.46,22.33,16.66s-10,16.66-22.33,16.66-22.33-7.46-22.33-16.66,10-16.66,22.33-16.66"/>
  <path class="cls-1" d="M99.61,183.07c43.37,17.38,70.1,52.51,59.7,78.46-10.4,25.95-53.99,32.89-97.36,15.51C18.58,259.65-8.15,224.53,2.24,198.58c10.4-25.95,53.99-32.89,97.36-15.51"/>
  <path class="cls-1" d="M179.22,368.56c25.79,11.2,43.33,31.8,37.15,45.37-6.18,13.57-31.53,14.26-57.32,3.06-25.78-11.2-43.56-31.8-37.38-45.37,6.18-13.57,31.77-14.26,57.55-3.06"/>
  <path class="cls-1" d="M236.47,488.29c16.05,6.97,22.91,19.98,19.06,28.43-3.85,8.44-18.73,9.99-34.78,3.02-16.05-6.97-24.14-19.68-20.29-28.12,3.85-8.44,19.96-10.29,36.01-3.32"/>
  <path class="cls-1" d="M533.38,183.07c-43.37,17.38-70.1,52.51-59.7,78.46,10.4,25.95,53.99,32.89,97.36,15.51,43.37-17.38,70.1-52.51,59.7-78.46-10.4-25.95-53.99-32.89-97.36-15.51"/>
  <path class="cls-1" d="M453.77,368.56c-25.78,11.2-43.33,31.8-37.15,45.37,6.18,13.57,31.53,14.26,57.32,3.06,25.78-11.2,43.56-31.8,37.38-45.37-6.18-13.57-31.77-14.26-57.55-3.06"/>
  <path class="cls-1" d="M396.52,488.29c-16.05,6.97-22.91,19.98-19.06,28.43,3.85,8.44,18.73,9.99,34.78,3.02,16.05-6.97,24.14-19.68,20.29-28.12-3.85-8.44-19.96-10.29-36.01-3.32"/>
</svg>